<svg width="500" height="500" viewBox="0 0 500 500" fill="none" xmlns="http://www.w3.org/2000/svg">
<rect width="500" height="500" fill="white"/>
<path d="M205.936 118.456V242.968C207.264 242.968 209.173 243.051 211.663 243.217C214.153 243.383 216.146 243.466 217.64 243.466C242.044 243.466 260.389 238.07 272.674 227.279C284.959 216.322 291.102 200.136 291.102 178.72C291.102 160.126 285.54 145.434 274.417 134.643C263.294 123.852 248.27 118.456 229.344 118.456H205.936ZM76.1943 83.8418H263.46C302.806 83.8418 332.771 91.0635 353.357 105.507C373.943 119.95 384.236 140.951 384.236 168.51C384.236 193.08 376.185 212.67 360.081 227.279C344.144 241.889 320.237 251.352 288.362 255.668C299.319 257.826 308.948 260.814 317.249 264.633C325.55 268.285 332.605 272.768 338.416 278.08C351.531 289.867 363.816 311.2 375.271 342.079C377.928 348.886 379.92 354.115 381.248 357.768C387.391 373.041 394.529 383.251 402.664 388.397C410.965 393.378 423.748 395.868 441.014 395.868H446.99V426C433.211 426.996 420.511 427.743 408.89 428.241C397.435 428.739 387.059 428.988 377.762 428.988C361.326 428.988 346.883 426.747 334.432 422.265C321.98 417.782 311.771 411.225 303.802 402.592C295.667 393.793 288.196 376.693 281.39 351.293C278.401 340.502 275.994 332.45 274.168 327.138C267.859 308.876 259.891 296.01 250.262 288.539C240.633 280.902 227.518 277.084 210.916 277.084H205.936V384.662L213.904 394.374L247.522 396.366V426H76.1943V396.366L108.816 394.374L117.034 384.662V122.938L108.816 115.468L76.1943 113.476V83.8418Z" fill="#FF0000"/>
</svg>
